Coordinates
version=1
nRows=27
nColumns=12
inDegrees=yes

Units are S.I. units (second, meters, Newtons, ...)
Angles are in degrees

endheader
time	SC_y	SC_z	SC_x	AC_y	AC_z	AC_x	GH_y	GH_z	GH_yy	EL_x	PS_y
       0.0              -44.09           20.5          41.66           31.0         -5.275          5.124          5.346          24.94         -121.9          50.47          12.98
    0.0276              -44.09           20.5          41.66           31.0         -5.273          5.123          5.332          24.93         -121.9          50.47          12.98
   0.05519              -44.09           20.5          41.67           31.0         -5.272          5.123          5.316          24.93         -121.9          50.47          12.98
   0.08279              -44.09           20.5          41.67           31.0         -5.271          5.123          5.299          24.92         -121.9          50.48          12.98
    0.1104              -44.09           20.5          41.68           31.0          -5.27          5.123          5.281          24.92         -121.8          50.48          12.98
     0.138              -44.08           20.5          41.69          31.01         -5.268          5.122          5.262          24.91         -121.8          50.48          12.97
    0.1656              -44.08           20.5           41.7          31.01         -5.267          5.122          5.241           24.9         -121.8          50.48          12.97
    0.1932              -44.08           20.5           41.7          31.01         -5.265          5.122           5.22          24.89         -121.8          50.48          12.97
    0.2208              -44.08           20.5          41.71          31.01         -5.264          5.121          5.196          24.88         -121.7          50.49          12.97
    0.2484              -44.07           20.5          41.72          31.02         -5.262          5.121          5.171          24.88         -121.7          50.49          12.97
     0.276              -44.07           20.5          41.73          31.02          -5.26           5.12          5.144          24.87         -121.7          50.49          12.97
    0.3036              -44.07           20.5          41.74          31.02         -5.258           5.12          5.115          24.85         -121.6           50.5          12.97
    0.3312              -44.06          20.49          41.75          31.03         -5.256          5.119          5.084          24.84         -121.6           50.5          12.97
    0.3588              -44.06          20.49          41.76          31.03         -5.253          5.119           5.05          24.83         -121.5           50.5          12.97
    0.3864              -44.05          20.49          41.78          31.03          -5.25          5.118          5.014          24.82         -121.5          50.51          12.97
     0.414              -44.05          20.49          41.79          31.04         -5.248          5.117          4.974           24.8         -121.4          50.51          12.97
    0.4416              -44.04          20.49          41.81          31.04         -5.244          5.117          4.931          24.79         -121.4          50.51          12.97
    0.4692              -44.04          20.49          41.83          31.05         -5.241          5.116          4.884          24.77         -121.3          50.52          12.97
    0.4967              -44.03          20.48          41.84          31.05         -5.237          5.115          4.833          24.75         -121.2          50.52          12.97
    0.5243              -44.02          20.48          41.86          31.06         -5.233          5.114          4.777          24.73         -121.2          50.53          12.97
    0.5519              -44.02          20.48          41.89          31.07         -5.229          5.113          4.715          24.71         -121.1          50.54          12.96
    0.5795              -44.01          20.48          41.91          31.07         -5.224          5.112          4.648          24.68         -121.0          50.54          12.96
    0.6071               -44.0          20.47          41.94          31.08         -5.219          5.111          4.573          24.66         -120.9          50.55          12.96
    0.6347              -43.99          20.47          41.97          31.09         -5.213           5.11           4.49          24.63         -120.8          50.56          12.96
    0.6623              -43.98          20.47           42.0           31.1         -5.206          5.108          4.398          24.59         -120.6          50.57          12.96
    0.6899              -43.96          20.46          42.04          31.11         -5.198          5.106          4.295          24.55         -120.5          50.58          12.96
    0.7175              -43.95          20.46          42.08          31.12          -5.19          5.104           4.18          24.51         -120.3          50.59          12.95
